<?xml version="1.0" standalone="no"?>
<!DOCTYPE svg PUBLIC "-//W3C//DTD SVG 20010904//EN"
 "http://www.w3.org/TR/2001/REC-SVG-20010904/DTD/svg10.dtd">
<svg version="1.0" xmlns="http://www.w3.org/2000/svg"
 width="513.000000pt" height="513.000000pt" viewBox="0 0 513.000000 513.000000"
 preserveAspectRatio="xMidYMid meet">
<metadata>
Created by potrace 1.14, written by Peter Selinger 2001-2017
</metadata>
<g transform="translate(0.000000,513.000000) scale(0.100000,-0.100000)"
fill="#000000" stroke="none">
<path d="M3515 4713 c-52 -11 -188 -59 -255 -90 l-74 -34 -99 10 c-124 14
-483 14 -618 1 -596 -59 -1289 -241 -1919 -503 -216 -91 -410 -184 -410 -198
0 -6 29 -102 65 -213 36 -111 65 -208 65 -217 0 -24 -137 -702 -175 -867 -8
-35 -15 -66 -15 -70 1 -14 38 65 85 178 80 196 264 640 305 737 54 126 54 129
31 220 -12 45 -21 86 -21 91 0 26 491 198 772 271 417 108 816 169 1169 178
212 6 317 -3 422 -34 42 -13 48 -17 32 -23 -99 -38 -156 -64 -168 -78 -17 -19
-77 -162 -77 -184 0 -8 22 -22 48 -31 145 -53 214 -228 144 -367 -32 -64 -108
-127 -163 -136 -62 -10 -65 -15 -50 -76 23 -92 96 -285 115 -306 2 -1 25 8 52
20 34 15 69 22 114 22 207 -1 336 -229 227 -404 -12 -19 -21 -38 -20 -42 1 -3
-19 -9 -45 -12 -26 -3 -249 -31 -497 -61 -247 -30 -481 -59 -520 -64 -38 -6
-126 -17 -195 -25 -69 -9 -271 -34 -450 -56 -179 -21 -509 -62 -735 -90 -226
-27 -428 -52 -451 -55 l-40 -6 -28 -125 c-15 -69 -26 -127 -24 -129 2 -2 25 1
51 6 27 5 142 25 255 44 114 20 257 45 317 55 61 11 204 35 320 55 303 52 415
71 545 94 63 11 207 36 320 55 113 19 297 51 410 71 113 19 309 53 435 75 127
21 285 49 352 60 96 17 127 19 144 10 12 -7 57 -25 100 -40 l79 -29 30 65 c16
35 35 64 42 64 7 0 87 13 178 29 l165 29 47 -48 c30 -32 51 -64 59 -92 6 -24
13 -49 15 -55 2 -7 12 -13 23 -13 36 0 190 50 276 90 73 33 86 43 80 57 -26
59 -45 127 -38 133 4 4 76 19 158 33 456 77 598 102 583 105 -14 3 -619 -69
-705 -83 -29 -5 -33 -3 -33 17 0 13 14 46 30 75 51 89 128 133 234 133 51 0
75 -6 119 -29 l56 -29 16 25 c38 57 77 137 110 222 39 100 42 121 20 121 -52
0 -141 75 -175 146 -24 53 -27 155 -5 207 30 71 115 144 188 161 15 4 27 10
27 15 0 44 -107 331 -124 331 -2 0 -25 -9 -51 -20 -69 -30 -152 -27 -221 7
-97 48 -148 132 -147 245 0 55 5 75 32 122 l31 56 -52 34 c-70 44 -128 73
-207 103 -124 48 -118 48 -136 -6 -35 -106 -140 -181 -252 -181 -123 1 -237
94 -258 213 -4 20 -10 36 -14 36 -3 -1 -15 -3 -26 -6z m421 -634 c159 -49 306
-198 356 -363 30 -102 28 -235 -5 -334 -98 -285 -394 -438 -684 -353 -60 17
-157 76 -213 127 -65 61 -116 142 -147 233 -28 82 -31 229 -7 312 77 260 310
423 574 402 36 -3 92 -14 126 -24z"/>
<path d="M2005 3814 c-320 -32 -705 -113 -705 -148 0 -7 7 -21 15 -32 8 -10
15 -24 15 -31 0 -7 -36 -85 -79 -173 -72 -145 -77 -160 -58 -160 47 0 667 70
739 84 215 40 385 204 396 381 4 53 2 63 -14 69 -22 9 -251 16 -309 10z"/>
<path d="M1830 2984 c-246 -32 -847 -104 -862 -104 -4 0 -1 -17 8 -39 l15 -38
-75 -158 c-42 -87 -76 -163 -76 -170 0 -7 8 -11 18 -9 9 2 181 22 382 44 448
49 514 67 620 166 89 83 140 186 140 281 0 42 -1 43 -32 42 -18 -1 -80 -8
-138 -15z"/>
<path d="M3861 2334 c-119 -24 -152 -39 -172 -76 -6 -11 -20 -132 -30 -267
-11 -135 -21 -252 -24 -258 -2 -7 -15 -13 -29 -13 -21 0 -24 -5 -31 -56 -4
-31 -4 -58 -1 -61 6 -6 128 15 162 28 19 7 22 17 26 83 2 41 6 77 9 81 4 3 48
14 98 24 88 18 122 35 141 72 5 8 16 105 25 213 14 180 14 201 0 222 -8 13
-19 24 -24 24 -5 0 -15 2 -23 4 -7 2 -64 -7 -127 -20z m55 -161 c-3 -27 -8
-89 -12 -139 l-6 -92 -36 -6 c-21 -3 -48 -9 -61 -13 l-24 -6 7 99 c12 175 14
183 50 193 17 5 44 10 59 10 29 1 29 0 23 -46z"/>
<path d="M2724 2288 c-47 -8 -52 -12 -58 -40 -3 -17 -6 -44 -6 -61 l0 -30 52
7 c29 4 58 12 65 18 14 11 19 119 6 117 -5 -1 -31 -6 -59 -11z"/>
<path d="M3550 2276 l-55 -12 -16 -197 c-8 -108 -17 -199 -20 -200 -2 -2 -26
-9 -53 -16 -60 -15 -68 -7 -61 59 14 132 27 322 23 326 -3 2 -32 -1 -64 -8
l-59 -13 -7 -105 c-5 -58 -12 -150 -18 -205 -8 -87 -7 -105 8 -135 23 -48 55
-57 150 -42 119 19 196 33 199 36 1 1 9 90 18 197 8 107 17 224 20 262 4 37 3
66 -2 66 -4 -1 -33 -7 -63 -13z"/>
<path d="M2555 2254 c-73 -15 -111 -52 -119 -116 -9 -68 -47 -590 -44 -594 2
-1 30 3 63 9 l60 12 15 199 15 200 33 8 c31 8 32 9 32 67 0 57 -1 58 -25 53
-21 -4 -25 -1 -25 21 0 19 6 26 29 30 27 6 29 10 33 59 3 29 2 56 -1 59 -3 3
-33 0 -66 -7z"/>
<path d="M3134 2197 c-52 -9 -52 -10 -89 -83 -21 -41 -39 -74 -41 -74 -2 0
-16 27 -31 60 -24 55 -29 60 -52 56 -14 -3 -43 -8 -63 -12 -21 -3 -38 -10 -38
-14 0 -5 23 -56 51 -114 l51 -105 -76 -141 c-42 -78 -76 -145 -76 -150 0 -4
28 -2 63 4 54 10 64 15 78 41 8 17 29 57 46 90 l31 60 32 -72 c24 -54 38 -73
52 -73 33 0 108 22 108 31 0 5 -25 60 -56 121 l-56 112 20 40 c12 23 44 83 72
134 27 51 50 95 50 97 0 6 -12 5 -76 -8z"/>
<path d="M2710 2117 l-55 -12 -17 -210 c-9 -115 -17 -233 -17 -261 l-1 -51 57
11 c57 12 58 12 64 51 4 22 12 114 18 205 6 91 14 191 18 223 3 31 2 57 -3 56
-5 0 -34 -6 -64 -12z"/>
<path d="M1533 2082 c-89 -17 -93 -21 -93 -94 0 -35 2 -38 30 -38 19 0 28 -4
25 -12 -2 -7 -9 -87 -15 -178 -17 -254 -17 -257 -50 -264 -26 -5 -28 -9 -32
-58 -3 -29 -3 -56 -2 -59 2 -3 43 2 91 11 l88 16 9 87 c9 93 8 92 81 103 l48
7 -6 -88 c-6 -86 -6 -87 16 -81 12 3 41 8 65 12 l42 7 2 61 c1 33 3 90 4 126
1 36 9 123 18 195 8 71 14 130 13 131 -3 3 -121 -16 -124 -20 -2 -1 -6 -45 -9
-97 -4 -52 -10 -101 -15 -109 -4 -8 -33 -20 -63 -26 -49 -10 -56 -9 -56 5 0 9
7 93 15 186 17 200 17 195 8 194 -5 -1 -45 -8 -90 -17z"/>
<path d="M1348 2047 c-49 -11 -58 -26 -58 -99 l0 -30 53 7 c28 4 58 12 65 17
7 6 12 33 12 64 0 59 3 57 -72 41z"/>
<path d="M2080 2016 c-121 -25 -144 -36 -164 -74 -14 -28 -36 -255 -36 -373 0
-37 5 -70 12 -77 14 -14 73 -16 131 -3 23 5 67 14 98 21 45 9 58 16 63 33 6
22 8 97 4 97 -2 0 -38 -7 -81 -15 -101 -19 -107 -19 -107 4 0 26 10 31 93 47
77 15 127 46 153 96 9 17 20 72 25 122 7 81 6 94 -10 116 -24 33 -52 34 -181
6z m64 -148 c-8 -55 -19 -66 -77 -77 l-48 -9 3 52 3 51 55 12 c30 6 58 12 63
12 4 1 4 -18 1 -41z"/>
<path d="M893 1962 l-83 -15 0 -36 c0 -20 -3 -46 -6 -58 -6 -20 -3 -23 26 -23
l32 0 -6 -62 c-3 -35 -11 -130 -16 -213 -6 -82 -13 -163 -16 -178 -8 -36 12
-85 38 -93 11 -3 77 4 146 17 139 25 177 46 187 102 13 70 32 383 24 404 -5
12 -20 25 -35 29 -23 6 -108 -5 -183 -23 -21 -5 -23 -3 -17 23 10 51 10 138 1
139 -6 1 -47 -5 -92 -13z m203 -279 c-3 -16 -8 -78 -11 -139 l-7 -112 -60 -12
c-33 -6 -61 -10 -62 -8 -3 4 15 272 19 276 3 4 85 20 108 21 15 1 18 -4 13
-26z"/>
<path d="M1335 1877 c-47 -11 -50 -14 -53 -47 -2 -19 -11 -135 -21 -257 l-17
-223 21 0 c22 0 94 16 100 22 3 2 45 483 45 511 0 9 -14 8 -75 -6z"/>
<path d="M4815 1754 c-116 -19 -141 -23 -900 -139 -379 -58 -718 -109 -752
-115 -35 -5 -91 -15 -125 -20 -35 -6 -153 -24 -263 -40 -110 -16 -227 -34
-260 -40 -33 -5 -224 -35 -425 -65 -201 -30 -421 -64 -490 -75 -69 -11 -289
-44 -490 -75 -323 -49 -401 -61 -525 -81 -16 -2 -149 -23 -295 -45 -145 -22
-266 -42 -269 -44 -7 -7 7 -6 207 15 240 26 528 56 712 75 80 9 181 20 225 25
44 5 112 12 150 15 l70 7 145 -145 c80 -79 177 -169 216 -199 221 -175 465
-296 662 -330 70 -12 72 -11 184 25 376 124 798 433 1132 829 32 38 67 70 79
73 12 2 177 20 367 40 190 19 383 39 430 45 47 5 159 17 250 26 91 9 168 19
172 23 8 7 -104 224 -118 227 -5 1 -45 -4 -89 -12z m-1621 -426 c-26 -44 -131
-173 -199 -245 -122 -128 -321 -261 -467 -313 -50 -17 -52 -17 -122 5 -228 71
-443 196 -591 343 l-67 66 28 7 c16 4 85 12 154 18 69 7 161 16 205 21 44 6
148 17 230 25 83 9 188 20 235 25 47 5 175 19 285 30 110 11 214 21 230 23 68
9 86 7 79 -5z"/>
</g>
</svg>
